<?xml version="1.0" encoding="UTF-8"?>
<svg xmlns="http://www.w3.org/2000/svg" version="1.1" viewBox="0 0 125.5 152.7">
  <defs>
    <style>
      .cls-1 {
        fill: #231f20;
      }
    </style>
  </defs>
  <!-- Generator: Adobe Illustrator 28.7.7, SVG Export Plug-In . SVG Version: 1.2.0 Build 194)  -->
  <g>
    <g id="Layer_1">
      <g>
        <path class="cls-1" d="M101.6,38.3c-.6,8.8-1.3,17.1-.4,25.5.6,6.1-3,10.4-8.9,12.2-1.6.5-3.2.8-4.7,1.2-4.9,1.4-5.9,2.7-6.3,7.8-.4,5.1-3.2,8-8.5,8.8-6.6.9-13.2.9-19.7,0-5.7-.8-7.4-2.8-8.2-8.8-.6-4.9-2-6.4-6.7-7.7-13.1-3.6-14.5-5.8-13.5-19.5.4-5,.4-10-.3-14.9C21.3,19.2,37.5.5,61.2,0c8.2-.2,16.2.7,23.4,5,12.7,7.7,16.7,19.8,16.9,33.3M45.3,43.7c-1.7.2-3.5.4-5.2.8-5.6,1.3-8.5,4.7-8.1,9.5.5,6.7,4.7,11.4,10.4,11.7,5.7.3,12.4-4.1,14.4-9.6,1.7-4.5-.6-9.6-5.2-11.2-2-.7-4.1-1.1-6.3-1.2M80.6,43.8c-1.5.2-3.3.4-5,.8-6.6,1.4-9.4,7.6-6,13.5,2.2,3.7,5.5,6,9.7,7.1,6.9,1.9,12.1-1.5,13.9-9.1,1.4-6.2-1.6-10.3-8.7-11.7-1.2-.2-2.5-.4-3.9-.6M62.6,80.2c6,0,7.7-1.9,7-7.9-.5-3.9-2-7.4-3.9-10.8-1.3-2.3-3.3-2.5-5-.2-2.5,3.4-4,7.2-4.7,11.2-.9,5.1,1.4,7.6,6.6,7.6"/>
        <path class="cls-1" d="M50,116.6c-6.6-3-12.7-5.5-18.6-8.4-7.2-3.6-14.5-4.9-22.4-2.6-3.3,1-6.2-.2-8-3.3-1.8-3.1-1.3-6.1,1.3-8.5,1.7-1.6,2.2-3.4,2.4-5.6.3-4.3,2.5-7.1,5.9-7.6,3.9-.7,6.2,1.5,7.9,4.8,2.4,4.8,6.2,8.5,11.1,10.7,10.3,4.7,20.7,9.3,31,14,1.5.7,2.8.6,4.3-.1,9.9-4.5,19.8-8.9,29.7-13.3,5.6-2.5,9.8-6.3,12.5-11.8,1.6-3.2,4-5.1,7.8-4.3,3.8.9,5.6,3.6,5.7,7.3,0,2.4.9,4.2,2.6,5.9,2.3,2.4,2.9,5.3,1.3,8.2-1.7,3.1-4.5,4.6-7.9,3.5-8.5-2.6-16.2-.8-23.8,3.1-5.4,2.7-11.1,5-17.6,7.9,10.3,4,18.9,9.5,28.9,11.9,3.7.9,7.4.3,11.1-.7,4.4-1.2,7.4-.2,9.1,3,1.9,3.5,1,6.5-1.8,9-1.5,1.4-1.8,3.1-1.9,5.1,0,3.8-1.8,6.5-5.5,7.5-3.7,1-6.4-.8-8-4-3.3-6.3-8.6-10.2-14.9-13.1-8.8-4-17.8-7.8-26.7-11.8-1.8-.8-3.4-1.1-5.3-.3-8.9,4-17.8,7.9-26.6,11.9-6.6,3-12.3,7-15.7,13.7-1.5,2.9-4.1,4.4-7.5,3.7-3.5-.8-5.4-3.2-5.6-6.6-.2-2.9-.9-5.2-3.1-7.3-2.2-2.1-2.4-4.9-.9-7.6,1.5-2.6,3.9-4.6,6.8-3.6,11.5,3.9,21.2-1.2,31-5.8,3.5-1.6,7-3.1,11.3-5"/>
      </g>
    </g>
  </g>
</svg>